<?xml version="1.0" encoding="UTF-8" standalone="no"?>
<svg
   viewBox="0 0 448 512"
   version="1.1"
   id="svg1"
   sodipodi:docname="code-branch.svg"
   inkscape:version="1.3.2 (091e20e, 2023-11-25, custom)"
   xmlns:inkscape="http://www.inkscape.org/namespaces/inkscape"
   xmlns:sodipodi="http://sodipodi.sourceforge.net/DTD/sodipodi-0.dtd"
   xmlns="http://www.w3.org/2000/svg"
   xmlns:svg="http://www.w3.org/2000/svg">
  <defs
     id="defs1" />
  <sodipodi:namedview
     id="namedview1"
     pagecolor="#ffffff"
     bordercolor="#000000"
     borderopacity="0.25"
     inkscape:showpageshadow="2"
     inkscape:pageopacity="0.0"
     inkscape:pagecheckerboard="0"
     inkscape:deskcolor="#d1d1d1"
     inkscape:zoom="1.1894531"
     inkscape:cx="223.63218"
     inkscape:cy="256"
     inkscape:window-width="1440"
     inkscape:window-height="847"
     inkscape:window-x="1672"
     inkscape:window-y="-8"
     inkscape:window-maximized="1"
     inkscape:current-layer="svg1" />
  <!--! Font Awesome Free 7.0.1 by @fontawesome - https://fontawesome.com License - https://fontawesome.com/license/free (Icons: CC BY 4.0, Fonts: SIL OFL 1.1, Code: MIT License) Copyright 2025 Fonticons, Inc. -->
  <path
     fill="currentColor"
     d="M80 104a24 24 0 1 0 0-48 24 24 0 1 0 0 48zm80-24c0 32.8-19.7 61-48 73.3l0 70.7 176 0c26.5 0 48-21.5 48-48l0-22.7c-28.3-12.3-48-40.5-48-73.3 0-44.2 35.8-80 80-80s80 35.8 80 80c0 32.8-19.7 61-48 73.3l0 22.7c0 61.9-50.1 112-112 112l-176 0 0 70.7c28.3 12.3 48 40.5 48 73.3 0 44.2-35.8 80-80 80S0 476.2 0 432c0-32.8 19.7-61 48-73.3l0-205.3C19.7 141 0 112.8 0 80 0 35.8 35.8 0 80 0s80 35.8 80 80zm232 0a24 24 0 1 0 -48 0 24 24 0 1 0 48 0zM80 456a24 24 0 1 0 0-48 24 24 0 1 0 0 48z"
     id="path1"
     style="fill:#ff6300;fill-opacity:1" />
</svg>
