<?xml version="1.0" encoding="UTF-8" standalone="no"?>
<!-- Creator: CorelDRAW X8 -->

<svg
   xml:space="preserve"
   width="4252px"
   height="4252px"
   version="1.1"
   style="shape-rendering:geometricPrecision; text-rendering:geometricPrecision; image-rendering:optimizeQuality; fill-rule:evenodd; clip-rule:evenodd"
   viewBox="0 0 4252 4252"
   id="svg1"
   sodipodi:docname="core.svg"
   inkscape:version="1.3.2 (091e20e, 2023-11-25, custom)"
   xmlns:inkscape="http://www.inkscape.org/namespaces/inkscape"
   xmlns:sodipodi="http://sodipodi.sourceforge.net/DTD/sodipodi-0.dtd"
   xmlns="http://www.w3.org/2000/svg"
   xmlns:svg="http://www.w3.org/2000/svg"><sodipodi:namedview
   id="namedview1"
   pagecolor="#ffffff"
   bordercolor="#000000"
   borderopacity="0.25"
   inkscape:showpageshadow="2"
   inkscape:pageopacity="0.0"
   inkscape:pagecheckerboard="0"
   inkscape:deskcolor="#d1d1d1"
   inkscape:zoom="0.095719661"
   inkscape:cx="2126"
   inkscape:cy="2126"
   inkscape:window-width="1440"
   inkscape:window-height="847"
   inkscape:window-x="1672"
   inkscape:window-y="-8"
   inkscape:window-maximized="1"
   inkscape:current-layer="Layer_x0020_1" />
 <defs
   id="defs1">
  <style
   type="text/css"
   id="style1">
   <![CDATA[
    .fil0 {fill:black}
   ]]>
  </style>
 </defs>
 <g
   id="Layer_x0020_1"
   inkscape:label="Layer 1">
  <metadata
   id="CorelCorpID_0Corel-Layer" />
  <path
   class="fil0"
   d="M2389 156c-804,-119 -1607,265 -2016,972l-75 131 734 422 75 -125 0 0c131,-225 331,-397 566,-491l0 816 -1475 853 44 119c165,421 468,771 859,1000 303,175 647,268 997,268l0 0 147 -3 0 -847 -147 0c-203,0 -397,-53 -572,-153 -47,-28 -94,-59 -134,-94l706 -406 1478 853 81 -100c63,-78 119,-162 166,-247 359,-618 356,-1378 0,-1993l-72 -128 -734 425 72 128c128,222 178,481 143,734l-706 -406 -9 -1441 0 -272 -128 -15 0 0z"
   id="path1"
   style="fill:#ff6347;fill-opacity:1" />
 </g>
</svg>
