<?xml version="1.0" encoding="UTF-8" standalone="no"?>
<svg
   viewBox="0 0 576 512"
   version="1.1"
   id="svg1"
   sodipodi:docname="download-active.svg"
   inkscape:version="1.3.2 (091e20e, 2023-11-25, custom)"
   xmlns:inkscape="http://www.inkscape.org/namespaces/inkscape"
   xmlns:sodipodi="http://sodipodi.sourceforge.net/DTD/sodipodi-0.dtd"
   xmlns="http://www.w3.org/2000/svg"
   xmlns:svg="http://www.w3.org/2000/svg">
  <defs
     id="defs1" />
  <sodipodi:namedview
     id="namedview1"
     pagecolor="#ffffff"
     bordercolor="#000000"
     borderopacity="0.25"
     inkscape:showpageshadow="2"
     inkscape:pageopacity="0.0"
     inkscape:pagecheckerboard="0"
     inkscape:deskcolor="#d1d1d1"
     inkscape:zoom="1.1894531"
     inkscape:cx="288.78818"
     inkscape:cy="256.00001"
     inkscape:window-width="1440"
     inkscape:window-height="847"
     inkscape:window-x="1672"
     inkscape:window-y="-8"
     inkscape:window-maximized="1"
     inkscape:current-layer="svg1" />
  <!--! Font Awesome Free 7.0.1 by @fontawesome - https://fontawesome.com License - https://fontawesome.com/license/free (Icons: CC BY 4.0, Fonts: SIL OFL 1.1, Code: MIT License) Copyright 2025 Fonticons, Inc. -->
  <path
     fill="currentColor"
     d="M144 480c-79.5 0-144-64.5-144-144 0-63.4 41-117.2 97.9-136.5-1.3-7.7-1.9-15.5-1.9-23.5 0-79.5 64.5-144 144-144 55.4 0 103.5 31.3 127.6 77.1 14.2-8.3 30.8-13.1 48.4-13.1 53 0 96 43 96 96 0 15.7-3.8 30.6-10.5 43.7 44 20.3 74.5 64.7 74.5 116.3 0 70.7-57.3 128-128 128l-304 0zM377 313c9.4-9.4 9.4-24.6 0-33.9s-24.6-9.4-33.9 0l-31 31 0-102.1c0-13.3-10.7-24-24-24s-24 10.7-24 24l0 102.1-31-31c-9.4-9.4-24.6-9.4-33.9 0s-9.4 24.6 0 33.9l72 72c9.4 9.4 24.6 9.4 33.9 0l72-72z"
     id="path1"
     style="fill:#f9f9f9;fill-opacity:1" />
</svg>
