<?xml version="1.0" encoding="UTF-8" standalone="no"?>
<svg
   viewBox="0 0 448 512"
   version="1.1"
   id="svg1"
   sodipodi:docname="email.svg"
   inkscape:version="1.3.2 (091e20e, 2023-11-25, custom)"
   xmlns:inkscape="http://www.inkscape.org/namespaces/inkscape"
   xmlns:sodipodi="http://sodipodi.sourceforge.net/DTD/sodipodi-0.dtd"
   xmlns="http://www.w3.org/2000/svg"
   xmlns:svg="http://www.w3.org/2000/svg">
  <defs
     id="defs1" />
  <sodipodi:namedview
     id="namedview1"
     pagecolor="#ffffff"
     bordercolor="#000000"
     borderopacity="0.25"
     inkscape:showpageshadow="2"
     inkscape:pageopacity="0.0"
     inkscape:pagecheckerboard="0"
     inkscape:deskcolor="#d1d1d1"
     inkscape:zoom="1.1894531"
     inkscape:cx="223.21183"
     inkscape:cy="256.84073"
     inkscape:window-width="1440"
     inkscape:window-height="847"
     inkscape:window-x="1672"
     inkscape:window-y="-8"
     inkscape:window-maximized="1"
     inkscape:current-layer="svg1" />
  <!--! Font Awesome Free 7.0.1 by @fontawesome - https://fontawesome.com License - https://fontawesome.com/license/free (Icons: CC BY 4.0, Fonts: SIL OFL 1.1, Code: MIT License) Copyright 2025 Fonticons, Inc. -->
  <path
     fill="currentColor"
     d="M64 32C28.7 32 0 60.7 0 96L0 416c0 35.3 28.7 64 64 64l320 0c35.3 0 64-28.7 64-64l0-320c0-35.3-28.7-64-64-64L64 32zM209.1 267.9L108.4 207.4c-7.7-4.6-12.4-12.9-12.4-21.9 0-14.1 11.4-25.5 25.5-25.5l204.9 0c14.1 0 25.5 11.4 25.5 25.5 0 9-4.7 17.3-12.4 21.9L238.9 267.9c-4.5 2.7-9.6 4.1-14.9 4.1s-10.4-1.4-14.9-4.1zM352 237.3l0 82.7c0 17.7-14.3 32-32 32l-192 0c-17.7 0-32-14.3-32-32l0-82.7 96.7 58C202.1 301 213 304 224 304s21.9-3 31.3-8.7l96.7-58z"
     id="path1"
     style="fill:#ff8c69;fill-opacity:1" />
</svg>
