<?xml version="1.0" encoding="UTF-8" standalone="no"?>
<svg
   viewBox="0 0 576 512"
   version="1.1"
   id="svg1"
   sodipodi:docname="like.svg"
   inkscape:version="1.3.2 (091e20e, 2023-11-25, custom)"
   xmlns:inkscape="http://www.inkscape.org/namespaces/inkscape"
   xmlns:sodipodi="http://sodipodi.sourceforge.net/DTD/sodipodi-0.dtd"
   xmlns="http://www.w3.org/2000/svg"
   xmlns:svg="http://www.w3.org/2000/svg">
  <defs
     id="defs1" />
  <sodipodi:namedview
     id="namedview1"
     pagecolor="#ffffff"
     bordercolor="#000000"
     borderopacity="0.25"
     inkscape:showpageshadow="2"
     inkscape:pageopacity="0.0"
     inkscape:pagecheckerboard="0"
     inkscape:deskcolor="#d1d1d1"
     inkscape:zoom="1.1894531"
     inkscape:cx="288.78818"
     inkscape:cy="256.00001"
     inkscape:window-width="1440"
     inkscape:window-height="847"
     inkscape:window-x="1672"
     inkscape:window-y="-8"
     inkscape:window-maximized="1"
     inkscape:current-layer="svg1" />
  <!--! Font Awesome Free 7.0.1 by @fontawesome - https://fontawesome.com License - https://fontawesome.com/license/free (Icons: CC BY 4.0, Fonts: SIL OFL 1.1, Code: MIT License) Copyright 2025 Fonticons, Inc. -->
  <path
     fill="currentColor"
     d="M309.5-18.9c-4.1-8-12.4-13.1-21.4-13.1s-17.3 5.1-21.4 13.1L193.1 125.3 33.2 150.7c-8.9 1.4-16.3 7.7-19.1 16.3s-.5 18 5.8 24.4l114.4 114.5-25.2 159.9c-1.4 8.9 2.3 17.9 9.6 23.2s16.9 6.1 25 2L288.1 417.6 432.4 491c8 4.1 17.7 3.3 25-2s11-14.2 9.6-23.2L441.7 305.9 556.1 191.4c6.4-6.4 8.6-15.8 5.8-24.4s-10.1-14.9-19.1-16.3L383 125.3 309.5-18.9z"
     id="path1"
     style="fill:#000000;fill-opacity:1" />
</svg>
