<?xml version="1.0" encoding="UTF-8"?>
<!DOCTYPE svg PUBLIC "-//W3C//DTD SVG 1.1//EN" "http://www.w3.org/Graphics/SVG/1.1/DTD/svg11.dtd">
<!-- Creator: CorelDRAW X8 -->
<svg xmlns="http://www.w3.org/2000/svg" xml:space="preserve" width="4252px" height="4252px" version="1.1" style="shape-rendering:geometricPrecision; text-rendering:geometricPrecision; image-rendering:optimizeQuality; fill-rule:evenodd; clip-rule:evenodd" viewBox="0 0 4252 4252" xmlns:xlink="http://www.w3.org/1999/xlink">
 <defs>
  <style type="text/css">
   <![CDATA[
    .fil0 {fill:black}
   ]]>
  </style>
 </defs>
 <g id="Layer_x0020_1">
  <metadata id="CorelCorpID_0Corel-Layer"/>
  <path class="fil0" d="M2389 156c-804,-119 -1607,265 -2016,972l-75 131 734 422 75 -125 0 0c131,-225 331,-397 566,-491l0 816 -1475 853 44 119c165,421 468,771 859,1000 303,175 647,268 997,268l0 0 147 -3 0 -847 -147 0c-203,0 -397,-53 -572,-153 -47,-28 -94,-59 -134,-94l706 -406 1478 853 81 -100c63,-78 119,-162 166,-247 359,-618 356,-1378 0,-1993l-72 -128 -734 425 72 128c128,222 178,481 143,734l-706 -406 -9 -1441 0 -272 -128 -15 0 0z"/>
 </g>
</svg>