<?xml version="1.0" encoding="UTF-8" standalone="no"?>
<!-- Creator: CorelDRAW X8 -->

<svg
   xml:space="preserve"
   width="2480px"
   height="2480px"
   version="1.1"
   style="shape-rendering:geometricPrecision; text-rendering:geometricPrecision; image-rendering:optimizeQuality; fill-rule:evenodd; clip-rule:evenodd"
   viewBox="0 0 2480 2480"
   id="svg1"
   sodipodi:docname="search.svg"
   inkscape:version="1.3.2 (091e20e, 2023-11-25, custom)"
   xmlns:inkscape="http://www.inkscape.org/namespaces/inkscape"
   xmlns:sodipodi="http://sodipodi.sourceforge.net/DTD/sodipodi-0.dtd"
   xmlns="http://www.w3.org/2000/svg"
   xmlns:svg="http://www.w3.org/2000/svg"><sodipodi:namedview
   id="namedview1"
   pagecolor="#ffffff"
   bordercolor="#000000"
   borderopacity="0.25"
   inkscape:showpageshadow="2"
   inkscape:pageopacity="0.0"
   inkscape:pagecheckerboard="0"
   inkscape:deskcolor="#d1d1d1"
   inkscape:zoom="0.1641129"
   inkscape:cx="1240"
   inkscape:cy="1240"
   inkscape:window-width="1440"
   inkscape:window-height="847"
   inkscape:window-x="1672"
   inkscape:window-y="-8"
   inkscape:window-maximized="1"
   inkscape:current-layer="Layer_x0020_1" />
 <defs
   id="defs1">
  <style
   type="text/css"
   id="style1">
   <![CDATA[
    .fil0 {fill:black}
   ]]>
  </style>
 </defs>
 <g
   id="Layer_x0020_1"
   inkscape:label="Layer 1">
  <metadata
   id="CorelCorpID_0Corel-Layer" />
  <path
   class="fil0"
   d="M2446 2144l-483 -483c-22,-21 -51,-33 -82,-33l-79 0c134,-171 213,-387 213,-620 0,-557 -451,-1008 -1007,-1008 -557,0 -1008,451 -1008,1008 0,556 451,1007 1008,1007 233,0 449,-79 620,-213l0 79c0,31 12,60 33,82l483 483c46,46 119,46 165,0l137 -137c45,-46 45,-119 0,-165zm-1438 -516c-343,0 -621,-278 -621,-620 0,-343 278,-621 621,-621 342,0 620,278 620,621 0,342 -278,620 -620,620z"
   id="path1"
   style="fill:#ff6347;fill-opacity:1" />
 </g>
</svg>
