<?xml version="1.0" encoding="UTF-8" standalone="no"?>
<svg
   viewBox="0 0 448 512"
   version="1.1"
   id="svg1"
   sodipodi:docname="share-alt-square.svg"
   inkscape:version="1.3.2 (091e20e, 2023-11-25, custom)"
   xmlns:inkscape="http://www.inkscape.org/namespaces/inkscape"
   xmlns:sodipodi="http://sodipodi.sourceforge.net/DTD/sodipodi-0.dtd"
   xmlns="http://www.w3.org/2000/svg"
   xmlns:svg="http://www.w3.org/2000/svg">
  <defs
     id="defs1" />
  <sodipodi:namedview
     id="namedview1"
     pagecolor="#ffffff"
     bordercolor="#000000"
     borderopacity="0.25"
     inkscape:showpageshadow="2"
     inkscape:pageopacity="0.0"
     inkscape:pagecheckerboard="0"
     inkscape:deskcolor="#d1d1d1"
     inkscape:zoom="1.1894531"
     inkscape:cx="223.63218"
     inkscape:cy="256"
     inkscape:window-width="1440"
     inkscape:window-height="847"
     inkscape:window-x="1672"
     inkscape:window-y="-8"
     inkscape:window-maximized="1"
     inkscape:current-layer="svg1" />
  <!--! Font Awesome Free 7.0.1 by @fontawesome - https://fontawesome.com License - https://fontawesome.com/license/free (Icons: CC BY 4.0, Fonts: SIL OFL 1.1, Code: MIT License) Copyright 2025 Fonticons, Inc. -->
  <path
     fill="currentColor"
     d="M64 32C28.7 32 0 60.7 0 96L0 416c0 35.3 28.7 64 64 64l320 0c35.3 0 64-28.7 64-64l0-320c0-35.3-28.7-64-64-64L64 32zM368 160c0 35.3-28.7 64-64 64-15.4 0-29.5-5.4-40.6-14.5l-85.3 46.5 85.3 46.5c11-9.1 25.2-14.5 40.6-14.5 35.3 0 64 28.7 64 64s-28.7 64-64 64-64-28.7-64-64c0-2.5 .1-4.9 .4-7.3L158.5 300c-11.7 12.3-28.2 20-46.5 20-35.3 0-64-28.7-64-64s28.7-64 64-64c18.3 0 34.8 7.7 46.5 20l81.9-44.7c-.3-2.4-.4-4.9-.4-7.3 0-35.3 28.7-64 64-64s64 28.7 64 64z"
     id="path1"
     style="fill:#ff6347;fill-opacity:1" />
</svg>
