<?xml version="1.0" encoding="UTF-8" standalone="no"?>
<svg
   viewBox="0 0 576 512"
   version="1.1"
   id="svg1"
   sodipodi:docname="wrench.svg"
   inkscape:version="1.3.2 (091e20e, 2023-11-25, custom)"
   xmlns:inkscape="http://www.inkscape.org/namespaces/inkscape"
   xmlns:sodipodi="http://sodipodi.sourceforge.net/DTD/sodipodi-0.dtd"
   xmlns="http://www.w3.org/2000/svg"
   xmlns:svg="http://www.w3.org/2000/svg">
  <defs
     id="defs1" />
  <sodipodi:namedview
     id="namedview1"
     pagecolor="#ffffff"
     bordercolor="#000000"
     borderopacity="0.25"
     inkscape:showpageshadow="2"
     inkscape:pageopacity="0.0"
     inkscape:pagecheckerboard="0"
     inkscape:deskcolor="#d1d1d1"
     inkscape:zoom="1.1894531"
     inkscape:cx="288.36782"
     inkscape:cy="256"
     inkscape:window-width="1440"
     inkscape:window-height="847"
     inkscape:window-x="1672"
     inkscape:window-y="-8"
     inkscape:window-maximized="1"
     inkscape:current-layer="svg1" />
  <!--! Font Awesome Free 7.0.1 by @fontawesome - https://fontawesome.com License - https://fontawesome.com/license/free (Icons: CC BY 4.0, Fonts: SIL OFL 1.1, Code: MIT License) Copyright 2025 Fonticons, Inc. -->
  <path
     fill="currentColor"
     d="M509.4 98.6c7.6-7.6 20.3-5.7 24.1 4.3 6.8 17.7 10.5 37 10.5 57.1 0 88.4-71.6 160-160 160-17.5 0-34.4-2.8-50.2-8L146.9 498.9c-28.1 28.1-73.7 28.1-101.8 0s-28.1-73.7 0-101.8L232 210.2c-5.2-15.8-8-32.6-8-50.2 0-88.4 71.6-160 160-160 20.1 0 39.4 3.7 57.1 10.5 10 3.8 11.8 16.5 4.3 24.1l-88.7 88.7c-3 3-4.7 7.1-4.7 11.3l0 41.4c0 8.8 7.2 16 16 16l41.4 0c4.2 0 8.3-1.7 11.3-4.7l88.7-88.7z"
     id="path1"
     style="fill:#ff6347;fill-opacity:1" />
</svg>
