<?xml version="1.0" encoding="UTF-8"?>
<!DOCTYPE svg PUBLIC "-//W3C//DTD SVG 1.1//EN" "http://www.w3.org/Graphics/SVG/1.1/DTD/svg11.dtd">
<!-- Creator: CorelDRAW X8 -->
<svg xmlns="http://www.w3.org/2000/svg" xml:space="preserve" width="255mm" height="255mm" version="1.1" style="shape-rendering:geometricPrecision; text-rendering:geometricPrecision; image-rendering:optimizeQuality; fill-rule:evenodd; clip-rule:evenodd"
viewBox="0 0 25500 25500"
 xmlns:xlink="http://www.w3.org/1999/xlink">
 <defs>
  <style type="text/css">
   <![CDATA[
    .fil1 {fill:#020000}
    .fil3 {fill:#450817}
    .fil5 {fill:#4B0102}
    .fil12 {fill:#7B0102}
    .fil14 {fill:#982629}
    .fil9 {fill:#A81717}
    .fil13 {fill:#CA3729}
    .fil10 {fill:#D6473A}
    .fil6 {fill:#D75957}
    .fil8 {fill:#E67669}
    .fil11 {fill:#F38C82}
    .fil7 {fill:#F5A49B}
    .fil4 {fill:#FECCBB}
    .fil0 {fill:#FEFEFE}
    .fil2 {fill:#FFF2E6}
   ]]>
  </style>
 </defs>
 <g id="Layer_x0020_1">
  <metadata id="CorelCorpID_0Corel-Layer"/>
  <g id="_2117888850560">
   <path class="fil0" d="M-188 22381l8017 -1905 159 -238c185,-1085 -159,-1667 -318,-2567 -503,-1825 79,-1085 -1164,-1984 0,-1667 -582,-1746 -741,-2990l159 -2646c79,-555 -80,-1402 0,-2143 79,-582 344,-979 423,-1640 1402,-3149 4710,-5477 9102,-3969 3625,1243 4868,4127 4445,8916l846 344 -185 1403c-159,582 -317,1402 -476,1984 -265,900 79,820 -1085,1058 -503,1085 -582,2408 -503,3731l159 238c1085,106 582,0 1006,423l6032 821 0 -21405 -25876 0 0 22569 0 0 0 0z"/>
   <path class="fil1" d="M9813 24524c-979,-741 -1561,-979 -1746,-2725l264 -1164 -502 -159 -8017 1905 0 3307 25876 0 0 -4471 -6032 -821 -1165 -238c-79,2223 -899,4366 -3227,4551 -900,80 -1059,-264 -1641,-503l-344 239c-582,423 -741,820 -1323,926 -1481,317 -2143,-847 -2143,-847l0 0 0 0z"/>
   <path class="fil1" d="M6347 6268c-79,661 -344,1058 -423,1640 -80,741 79,1588 0,2143 423,662 159,185 423,1429 159,900 -79,397 397,1138l265 -1323c0,-80 79,-159 79,-238l-79 -821c79,-926 502,-1825 979,-2487 343,-502 502,-582 1084,-740 821,-344 900,-265 1641,-159l264 -185c662,-582 5371,-1059 6694,185 900,741 318,820 1323,1323l0 -2170c-1825,-899 -582,-1402 -2487,-2460 -979,-503 -2487,-503 -3704,-503 -1905,-80 -1746,-424 -2831,238 -1402,741 -900,423 -1905,1667 -820,979 -397,582 -979,1561 -1561,159 -159,79 -741,-238l0 0 0 0z"/>
   <path class="fil2" d="M8993 7670l-79 2381c899,106 1402,0 1905,503l820 79c2143,662 1164,265 3386,-238l1244 -502c0,-1641 -79,-2302 -1244,-3043 -1666,-185 -2487,661 -4312,0l-1720 820 0 0z"/>
   <path class="fil3" d="M6347 6268c582,317 -820,397 741,238 582,-979 159,-582 979,-1561 1005,-1244 503,-926 1905,-1667 1085,-662 926,-318 2831,-238 1217,0 2725,0 3704,503 1905,1058 662,1561 2487,2460l0 2170c-1005,-503 -423,-582 -1323,-1323 -1323,-1244 -6032,-767 -6694,-185l5133 -80c900,926 2725,2408 2646,3890 476,661 318,820 397,1905 423,-344 159,0 503,-503 158,-238 158,-318 238,-662 423,-4789 -820,-7673 -4445,-8916 -4392,-1508 -7700,820 -9102,3969l0 0 0 0z"/>
   <path class="fil4" d="M7088 12697l-238 847c-1006,-503 79,79 -582,-503 -265,-159 0,-79 -503,-344 159,1244 741,1323 741,2990l1085 -238c2725,1984 -186,238 2460,1561l926 741c662,344 2382,0 3387,0 1640,0 1640,-662 2487,158 318,-1640 1561,-2143 1561,-3386 344,-1059 423,-900 238,-2064 -1481,-159 -476,-79 -899,238 740,185 344,-159 661,344 -238,1164 -238,741 -661,1323 -318,503 -318,820 -503,1323l-1984 -80c-741,-1084 -741,-1243 -1244,-2645 1667,0 1323,820 2990,158l-1164 159c-582,-582 -503,662 -503,-741 -238,-502 423,80 -318,-238 -582,238 -1084,0 -1561,-159 239,1059 556,2382 80,3625l1058 0c-317,900 503,424 -661,820 -397,186 -741,80 -1138,80l1561 767c-3545,476 -2990,159 -3969,-1243 -1402,158 -2408,-741 -2725,-2064 -741,-2831 3149,1058 4948,-1826 -318,0 -1403,80 -1561,80 -424,79 -80,-80 -503,158l-397 424c-582,-503 -423,-344 -1323,-265 -582,-79 -582,265 -503,-238l-740 -503 -503 741 0 0 0 0z"/>
   <path class="fil2" d="M12618 12300c-1799,2884 -5689,-1005 -4948,1826 318,1323 1323,2222 2725,2064 979,1402 424,1719 3969,1243l-1561 -767 -926 -318c-503,-158 -397,80 -741,-238 159,-1085 344,-1508 1244,-1746 79,1244 -159,503 317,1482l847 -80c476,-1243 159,-2566 -80,-3625l159 80c-503,0 -344,0 -661,0 0,0 -265,79 -344,79l0 0 0 0z"/>
   <path class="fil5" d="M17592 22619c-503,1587 -1746,1508 -3069,1244 264,-900 158,-583 661,-1138 159,-265 159,-265 344,-503 238,-344 159,-264 397,-503l423 -661c-238,-662 424,-582 -740,-79 -265,79 -424,158 -662,317 -1005,661 -2646,423 -3889,106 -1164,-265 -344,-185 -662,159 159,158 318,396 503,582 476,397 79,158 820,476l0 -476c979,-80 1985,-186 2963,158 -396,1165 -396,503 -1137,1482 -926,-238 -582,-317 -1588,-661l265 1005c-926,238 -1244,476 -2408,397 0,0 662,1164 2143,847 582,-106 741,-503 1323,-926l344 -239c582,239 741,583 1641,503 2328,-185 3148,-2328 3227,-4551l1165 238c-424,-423 79,-317 -1006,-423 -820,265 -397,344 -661,1508 -80,477 -238,820 -397,1138l0 0 0 0z"/>
   <path class="fil6" d="M10977 17751c-1005,344 -423,-238 -741,423 979,820 2461,238 3969,397 -661,661 -1085,503 -1164,582 -423,79 -159,-159 -820,79 582,0 1138,0 1720,186 1243,396 661,396 2169,158 159,-502 -106,-423 1059,-1085 423,-317 158,-158 740,-396l582 1640c-79,-1323 0,-2646 503,-3731 80,-555 159,-317 0,-899 -238,-820 423,-159 -582,-582 0,1243 -1243,1746 -1561,3386 -847,-820 -847,-158 -2487,-158 -1005,0 -2725,344 -3387,0l0 0 0 0z"/>
   <path class="fil7" d="M6506 15687c1243,899 661,159 1164,1984 159,900 503,1482 318,2567 79,0 185,-159 185,-159l476 -1588c2064,344 1005,821 1984,1165 186,-80 847,-344 847,-344 661,-159 -185,-80 741,-80 661,-238 397,0 820,-79 79,-79 503,79 1164,-582 -1508,-159 -2990,423 -3969,-397 318,-661 -264,-79 741,-423l-926 -741c-2646,-1323 265,423 -2460,-1561l-1085 238 0 0 0 0z"/>
   <path class="fil8" d="M15025 6850l821 159c740,1322 158,661 1402,1322l185 1641 -661 582 899 79c-582,582 -1005,0 -2063,847 0,0 79,0 158,79 0,80 80,80 159,80 1826,397 -1323,-159 423,79 238,0 741,80 1085,80l159 661 820 -503 344 265 0 -1746c79,-1482 -1746,-2964 -2646,-3890l-5133 80 -264 185c1825,661 2646,-185 4312,0l0 0 0 0z"/>
   <path class="fil9" d="M8067 21799c185,1746 767,1984 1746,2725 1164,79 1482,-159 2408,-397l-265 -1005 -238 -503c-741,-318 -344,-79 -820,-476 -185,-186 -344,-424 -503,-582 318,-344 -503,-424 662,-159l0 -344c-821,-900 -1165,-1244 -2329,-1641 582,2223 1667,1879 1905,4128 -2381,-423 -820,-820 -2566,-1746l0 0z"/>
   <path class="fil2" d="M17010 13120c-1667,662 -1323,-158 -2990,-158 503,1402 503,1561 1244,2646l1984 79c185,-503 185,-820 503,-1323 423,-582 423,-159 661,-1323 -317,-503 79,-159 -661,-344l-741 423 0 0 0 0z"/>
   <path class="fil10" d="M7988 20238l-159 238 502 159 -264 1164c1746,926 185,1323 2566,1746 -238,-2249 -1323,-1905 -1905,-4127 1165,396 1508,740 2329,1640l-424 -1402c-979,-344 80,-821 -1984,-1165l-476 1588c0,0 -106,159 -185,159l0 0 0 0z"/>
   <path class="fil9" d="M16110 19576l-502 820c1719,-978 -344,-502 2301,-1825 -158,1243 0,926 -740,1667l-397 397c-424,423 0,105 -424,423l-423 661 -159 1323c1006,159 1244,-79 1826,-423 159,-318 317,-661 397,-1138 264,-1164 -159,-1243 661,-1508l-159 -238 -582 -1640c-582,238 -317,79 -740,396 -1165,662 -900,583 -1059,1085l0 0 0 0z"/>
   <path class="fil11" d="M10633 19656l424 1402 0 344c1243,317 2884,556 3889,-106l79 -820 -2884 -397 80 -847c-926,0 -80,-79 -741,80 0,0 -661,264 -847,344l0 0z"/>
   <path class="fil7" d="M18756 12221l-344 -265 -820 503c-820,0 -1323,159 -2249,79 0,1403 -79,159 503,741l1164 -159 741 -423c423,-317 -582,-397 899,-238 185,1164 106,1005 -238,2064 1005,423 344,-238 582,582 159,582 80,344 0,899 1164,-238 820,-158 1085,-1058 159,-582 317,-1402 476,-1984l-582 -926c-397,661 -79,423 -238,767 0,0 0,159 0,159 -79,79 -159,238 -159,238 0,0 -79,159 -159,264l-661 -1243 0 0 0 0z"/>
   <path class="fil4" d="M11639 10633c0,186 79,186 159,265 0,159 79,238 158,238 503,741 344,159 662,1164 79,0 344,-79 344,-79 317,0 158,0 661,0 -79,-1508 1720,-1746 3149,-1667l661 -582 -185 -1641c-1244,-661 -662,0 -1402,-1322l-821 -159c1165,741 1244,1402 1244,3042l-1244 503c-2222,503 -1243,900 -3386,238l0 0z"/>
   <path class="fil7" d="M7009 10236l79 821 0 1640 503 -741 740 503c0,-159 -264,-1164 -158,-1323 79,-820 -265,-317 476,-741l2170 159c-503,-503 -1006,-397 -1905,-503l79 -2381c-741,397 -344,0 -741,582 -503,662 -344,1138 -1243,1984l0 0z"/>
   <path class="fil12" d="M8834 12697c900,-79 741,-238 1323,265l397 -424c423,-238 79,-79 503,-158 158,0 1243,-80 1561,-80 -318,-1005 -159,-423 -662,-1164 -79,0 -158,-79 -158,-238 -80,-79 -159,-79 -159,-265l-820 -79 -2170 -159c-159,1085 -159,238 1005,662 582,158 397,0 979,423 -1137,661 -2063,-265 -1799,1217l0 0 0 0z"/>
   <path class="fil12" d="M13623 12221l-159 -80c477,159 979,397 1561,159 741,318 80,-264 318,238 926,80 1429,-79 2249,-79l-159 -662c-344,0 -847,-79 -1085,-79 -1746,-238 1403,318 -423,-79 -79,0 -159,0 -159,-80 -79,-79 -158,-79 -158,-79 1058,-847 1481,-265 2063,-847l-899 -79c-1429,-79 -3228,159 -3149,1667l0 0 0 0z"/>
   <path class="fil13" d="M14946 21296c238,-159 397,-238 662,-317l0 -583 502 -820c-1508,238 -926,238 -2169,-158 -582,-186 -1138,-186 -1720,-186l-80 847 2884 397 -79 820 0 0 0 0z"/>
   <path class="fil1" d="M11718 22619l238 503c1006,344 662,423 1588,661 741,-979 741,-317 1137,-1482 -978,-343 -1984,-238 -2963,-158l0 476 0 0 0 0z"/>
   <path class="fil12" d="M17592 22619c-582,344 -820,582 -1826,423l159 -1323c-238,239 -159,159 -397,503 -185,238 -185,238 -344,503 -503,555 -397,238 -661,1138 1323,264 2566,343 3069,-1244l0 0 0 0z"/>
   <path class="fil6" d="M18756 12221l662 1243c79,-105 158,-264 158,-264 0,0 80,-159 159,-238 0,0 0,-159 0,-159 159,-344 -159,-106 238,-767l582 926 185 -1403 -846 -344c-80,344 -80,424 -238,662 -344,503 -80,159 -503,503 -79,-1085 79,-1244 -397,-1905l0 1746 0 0 0 0z"/>
   <path class="fil14" d="M7009 10236c899,-846 740,-1322 1243,-1984 397,-582 0,-185 741,-582l1720 -820c-741,-106 -821,-185 -1641,159 -582,158 -741,238 -1085,740 -476,662 -899,1561 -978,2487l0 0 0 0z"/>
   <path class="fil12" d="M15608 20396l0 583c1164,-503 502,-583 740,79 424,-318 0,0 424,-423l397 -397c740,-741 582,-424 740,-1667 -2645,1323 -582,847 -2302,1825l0 0 1 0z"/>
   <path class="fil11" d="M8331 12459c-79,503 -79,159 503,238 -264,-1482 662,-556 1799,-1217 -582,-423 -397,-265 -979,-423 -1164,-424 -1164,423 -1005,-662 -741,424 -397,-79 -476,741 -106,159 158,1164 158,1323l0 0z"/>
   <path class="fil6" d="M5765 12697c503,265 238,185 503,344 661,582 -424,0 582,503l238 -847 0 -1640c0,79 -79,158 -79,238l-265 1323c-476,-741 -238,-238 -397,-1138 -264,-1244 0,-767 -423,-1429l-159 2646z"/>
   <path class="fil9" d="M11877 16348l926 318c397,0 741,106 1138,-80 1164,-396 344,80 661,-820l-1058 0 -847 80 -820 0 0 502 0 0z"/>
   <path class="fil4" d="M11877 16348l0 -502 820 0c-476,-979 -238,-239 -317,-1482 -900,238 -1085,661 -1244,1746 344,318 238,80 741,238l0 0z"/>
  </g>
  <g id="_2117888850560_0">
   <path class="fil0" d="M-188 22381l8017 -1905 159 -238c185,-1085 -159,-1667 -318,-2567 -503,-1825 79,-1085 -1164,-1984 0,-1667 -582,-1746 -741,-2990l159 -2646c79,-555 -80,-1402 0,-2143 79,-582 344,-979 423,-1640 1402,-3149 4710,-5477 9102,-3969 3625,1243 4868,4127 4445,8916l846 344 -185 1403c-159,582 -317,1402 -476,1984 -265,900 79,820 -1085,1058 -503,1085 -582,2408 -503,3731l159 238c1085,106 582,0 1006,423l6032 821 0 -21405 -25876 0 0 22569 0 0 0 0z"/>
   <path class="fil1" d="M9813 24524c-979,-741 -1561,-979 -1746,-2725l264 -1164 -502 -159 -8017 1905 0 3307 25876 0 0 -4471 -6032 -821 -1165 -238c-79,2223 -899,4366 -3227,4551 -900,80 -1059,-264 -1641,-503l-344 239c-582,423 -741,820 -1323,926 -1481,317 -2143,-847 -2143,-847l0 0 0 0z"/>
   <path class="fil1" d="M6347 6268c-79,661 -344,1058 -423,1640 -80,741 79,1588 0,2143 423,662 159,185 423,1429 159,900 -79,397 397,1138l265 -1323c0,-80 79,-159 79,-238l-79 -821c79,-926 502,-1825 979,-2487 343,-502 502,-582 1084,-740 821,-344 900,-265 1641,-159l264 -185c662,-582 5371,-1059 6694,185 900,741 318,820 1323,1323l0 -2170c-1825,-899 -582,-1402 -2487,-2460 -979,-503 -2487,-503 -3704,-503 -1905,-80 -1746,-424 -2831,238 -1402,741 -900,423 -1905,1667 -820,979 -397,582 -979,1561 -1561,159 -159,79 -741,-238l0 0 0 0z"/>
   <path class="fil2" d="M8993 7670l-79 2381c899,106 1402,0 1905,503l820 79c2143,662 1164,265 3386,-238l1244 -502c0,-1641 -79,-2302 -1244,-3043 -1666,-185 -2487,661 -4312,0l-1720 820 0 0z"/>
   <path class="fil3" d="M6347 6268c582,317 -820,397 741,238 582,-979 159,-582 979,-1561 1005,-1244 503,-926 1905,-1667 1085,-662 926,-318 2831,-238 1217,0 2725,0 3704,503 1905,1058 662,1561 2487,2460l0 2170c-1005,-503 -423,-582 -1323,-1323 -1323,-1244 -6032,-767 -6694,-185l5133 -80c900,926 2725,2408 2646,3890 476,661 318,820 397,1905 423,-344 159,0 503,-503 158,-238 158,-318 238,-662 423,-4789 -820,-7673 -4445,-8916 -4392,-1508 -7700,820 -9102,3969l0 0 0 0z"/>
   <path class="fil4" d="M7088 12697l-238 847c-1006,-503 79,79 -582,-503 -265,-159 0,-79 -503,-344 159,1244 741,1323 741,2990l1085 -238c2725,1984 -186,238 2460,1561l926 741c662,344 2382,0 3387,0 1640,0 1640,-662 2487,158 318,-1640 1561,-2143 1561,-3386 344,-1059 423,-900 238,-2064 -1481,-159 -476,-79 -899,238 740,185 344,-159 661,344 -238,1164 -238,741 -661,1323 -318,503 -318,820 -503,1323l-1984 -80c-741,-1084 -741,-1243 -1244,-2645 1667,0 1323,820 2990,158l-1164 159c-582,-582 -503,662 -503,-741 -238,-502 423,80 -318,-238 -582,238 -1084,0 -1561,-159 239,1059 556,2382 80,3625l1058 0c-317,900 503,424 -661,820 -397,186 -741,80 -1138,80l1561 767c-3545,476 -2990,159 -3969,-1243 -1402,158 -2408,-741 -2725,-2064 -741,-2831 3149,1058 4948,-1826 -318,0 -1403,80 -1561,80 -424,79 -80,-80 -503,158l-397 424c-582,-503 -423,-344 -1323,-265 -582,-79 -582,265 -503,-238l-740 -503 -503 741 0 0 0 0z"/>
   <path class="fil2" d="M12618 12300c-1799,2884 -5689,-1005 -4948,1826 318,1323 1323,2222 2725,2064 979,1402 424,1719 3969,1243l-1561 -767 -926 -318c-503,-158 -397,80 -741,-238 159,-1085 344,-1508 1244,-1746 79,1244 -159,503 317,1482l847 -80c476,-1243 159,-2566 -80,-3625l159 80c-503,0 -344,0 -661,0 0,0 -265,79 -344,79l0 0 0 0z"/>
   <path class="fil5" d="M17592 22619c-503,1587 -1746,1508 -3069,1244 264,-900 158,-583 661,-1138 159,-265 159,-265 344,-503 238,-344 159,-264 397,-503l423 -661c-238,-662 424,-582 -740,-79 -265,79 -424,158 -662,317 -1005,661 -2646,423 -3889,106 -1164,-265 -344,-185 -662,159 159,158 318,396 503,582 476,397 79,158 820,476l0 -476c979,-80 1985,-186 2963,158 -396,1165 -396,503 -1137,1482 -926,-238 -582,-317 -1588,-661l265 1005c-926,238 -1244,476 -2408,397 0,0 662,1164 2143,847 582,-106 741,-503 1323,-926l344 -239c582,239 741,583 1641,503 2328,-185 3148,-2328 3227,-4551l1165 238c-424,-423 79,-317 -1006,-423 -820,265 -397,344 -661,1508 -80,477 -238,820 -397,1138l0 0 0 0z"/>
   <path class="fil6" d="M10977 17751c-1005,344 -423,-238 -741,423 979,820 2461,238 3969,397 -661,661 -1085,503 -1164,582 -423,79 -159,-159 -820,79 582,0 1138,0 1720,186 1243,396 661,396 2169,158 159,-502 -106,-423 1059,-1085 423,-317 158,-158 740,-396l582 1640c-79,-1323 0,-2646 503,-3731 80,-555 159,-317 0,-899 -238,-820 423,-159 -582,-582 0,1243 -1243,1746 -1561,3386 -847,-820 -847,-158 -2487,-158 -1005,0 -2725,344 -3387,0l0 0 0 0z"/>
   <path class="fil7" d="M6506 15687c1243,899 661,159 1164,1984 159,900 503,1482 318,2567 79,0 185,-159 185,-159l476 -1588c2064,344 1005,821 1984,1165 186,-80 847,-344 847,-344 661,-159 -185,-80 741,-80 661,-238 397,0 820,-79 79,-79 503,79 1164,-582 -1508,-159 -2990,423 -3969,-397 318,-661 -264,-79 741,-423l-926 -741c-2646,-1323 265,423 -2460,-1561l-1085 238 0 0 0 0z"/>
   <path class="fil8" d="M15025 6850l821 159c740,1322 158,661 1402,1322l185 1641 -661 582 899 79c-582,582 -1005,0 -2063,847 0,0 79,0 158,79 0,80 80,80 159,80 1826,397 -1323,-159 423,79 238,0 741,80 1085,80l159 661 820 -503 344 265 0 -1746c79,-1482 -1746,-2964 -2646,-3890l-5133 80 -264 185c1825,661 2646,-185 4312,0l0 0 0 0z"/>
   <path class="fil9" d="M8067 21799c185,1746 767,1984 1746,2725 1164,79 1482,-159 2408,-397l-265 -1005 -238 -503c-741,-318 -344,-79 -820,-476 -185,-186 -344,-424 -503,-582 318,-344 -503,-424 662,-159l0 -344c-821,-900 -1165,-1244 -2329,-1641 582,2223 1667,1879 1905,4128 -2381,-423 -820,-820 -2566,-1746l0 0z"/>
   <path class="fil2" d="M17010 13120c-1667,662 -1323,-158 -2990,-158 503,1402 503,1561 1244,2646l1984 79c185,-503 185,-820 503,-1323 423,-582 423,-159 661,-1323 -317,-503 79,-159 -661,-344l-741 423 0 0 0 0z"/>
   <path class="fil10" d="M7988 20238l-159 238 502 159 -264 1164c1746,926 185,1323 2566,1746 -238,-2249 -1323,-1905 -1905,-4127 1165,396 1508,740 2329,1640l-424 -1402c-979,-344 80,-821 -1984,-1165l-476 1588c0,0 -106,159 -185,159l0 0 0 0z"/>
   <path class="fil9" d="M16110 19576l-502 820c1719,-978 -344,-502 2301,-1825 -158,1243 0,926 -740,1667l-397 397c-424,423 0,105 -424,423l-423 661 -159 1323c1006,159 1244,-79 1826,-423 159,-318 317,-661 397,-1138 264,-1164 -159,-1243 661,-1508l-159 -238 -582 -1640c-582,238 -317,79 -740,396 -1165,662 -900,583 -1059,1085l0 0 0 0z"/>
   <path class="fil11" d="M10633 19656l424 1402 0 344c1243,317 2884,556 3889,-106l79 -820 -2884 -397 80 -847c-926,0 -80,-79 -741,80 0,0 -661,264 -847,344l0 0z"/>
   <path class="fil7" d="M18756 12221l-344 -265 -820 503c-820,0 -1323,159 -2249,79 0,1403 -79,159 503,741l1164 -159 741 -423c423,-317 -582,-397 899,-238 185,1164 106,1005 -238,2064 1005,423 344,-238 582,582 159,582 80,344 0,899 1164,-238 820,-158 1085,-1058 159,-582 317,-1402 476,-1984l-582 -926c-397,661 -79,423 -238,767 0,0 0,159 0,159 -79,79 -159,238 -159,238 0,0 -79,159 -159,264l-661 -1243 0 0 0 0z"/>
   <path class="fil4" d="M11639 10633c0,186 79,186 159,265 0,159 79,238 158,238 503,741 344,159 662,1164 79,0 344,-79 344,-79 317,0 158,0 661,0 -79,-1508 1720,-1746 3149,-1667l661 -582 -185 -1641c-1244,-661 -662,0 -1402,-1322l-821 -159c1165,741 1244,1402 1244,3042l-1244 503c-2222,503 -1243,900 -3386,238l0 0z"/>
   <path class="fil7" d="M7009 10236l79 821 0 1640 503 -741 740 503c0,-159 -264,-1164 -158,-1323 79,-820 -265,-317 476,-741l2170 159c-503,-503 -1006,-397 -1905,-503l79 -2381c-741,397 -344,0 -741,582 -503,662 -344,1138 -1243,1984l0 0z"/>
   <path class="fil12" d="M8834 12697c900,-79 741,-238 1323,265l397 -424c423,-238 79,-79 503,-158 158,0 1243,-80 1561,-80 -318,-1005 -159,-423 -662,-1164 -79,0 -158,-79 -158,-238 -80,-79 -159,-79 -159,-265l-820 -79 -2170 -159c-159,1085 -159,238 1005,662 582,158 397,0 979,423 -1137,661 -2063,-265 -1799,1217l0 0 0 0z"/>
   <path class="fil12" d="M13623 12221l-159 -80c477,159 979,397 1561,159 741,318 80,-264 318,238 926,80 1429,-79 2249,-79l-159 -662c-344,0 -847,-79 -1085,-79 -1746,-238 1403,318 -423,-79 -79,0 -159,0 -159,-80 -79,-79 -158,-79 -158,-79 1058,-847 1481,-265 2063,-847l-899 -79c-1429,-79 -3228,159 -3149,1667l0 0 0 0z"/>
   <path class="fil13" d="M14946 21296c238,-159 397,-238 662,-317l0 -583 502 -820c-1508,238 -926,238 -2169,-158 -582,-186 -1138,-186 -1720,-186l-80 847 2884 397 -79 820 0 0 0 0z"/>
   <path class="fil1" d="M11718 22619l238 503c1006,344 662,423 1588,661 741,-979 741,-317 1137,-1482 -978,-343 -1984,-238 -2963,-158l0 476 0 0 0 0z"/>
   <path class="fil12" d="M17592 22619c-582,344 -820,582 -1826,423l159 -1323c-238,239 -159,159 -397,503 -185,238 -185,238 -344,503 -503,555 -397,238 -661,1138 1323,264 2566,343 3069,-1244l0 0 0 0z"/>
   <path class="fil6" d="M18756 12221l662 1243c79,-105 158,-264 158,-264 0,0 80,-159 159,-238 0,0 0,-159 0,-159 159,-344 -159,-106 238,-767l582 926 185 -1403 -846 -344c-80,344 -80,424 -238,662 -344,503 -80,159 -503,503 -79,-1085 79,-1244 -397,-1905l0 1746 0 0 0 0z"/>
   <path class="fil14" d="M7009 10236c899,-846 740,-1322 1243,-1984 397,-582 0,-185 741,-582l1720 -820c-741,-106 -821,-185 -1641,159 -582,158 -741,238 -1085,740 -476,662 -899,1561 -978,2487l0 0 0 0z"/>
   <path class="fil12" d="M15608 20396l0 583c1164,-503 502,-583 740,79 424,-318 0,0 424,-423l397 -397c740,-741 582,-424 740,-1667 -2645,1323 -582,847 -2302,1825l0 0 1 0z"/>
   <path class="fil11" d="M8331 12459c-79,503 -79,159 503,238 -264,-1482 662,-556 1799,-1217 -582,-423 -397,-265 -979,-423 -1164,-424 -1164,423 -1005,-662 -741,424 -397,-79 -476,741 -106,159 158,1164 158,1323l0 0z"/>
   <path class="fil6" d="M5765 12697c503,265 238,185 503,344 661,582 -424,0 582,503l238 -847 0 -1640c0,79 -79,158 -79,238l-265 1323c-476,-741 -238,-238 -397,-1138 -264,-1244 0,-767 -423,-1429l-159 2646z"/>
   <path class="fil9" d="M11877 16348l926 318c397,0 741,106 1138,-80 1164,-396 344,80 661,-820l-1058 0 -847 80 -820 0 0 502 0 0z"/>
   <path class="fil4" d="M11877 16348l0 -502 820 0c-476,-979 -238,-239 -317,-1482 -900,238 -1085,661 -1244,1746 344,318 238,80 741,238l0 0z"/>
  </g>
 </g>
</svg>
