<?xml version="1.0" encoding="UTF-8"?>
<!DOCTYPE svg PUBLIC "-//W3C//DTD SVG 1.1//EN" "http://www.w3.org/Graphics/SVG/1.1/DTD/svg11.dtd">
<!-- Creator: CorelDRAW X8 -->
<svg xmlns="http://www.w3.org/2000/svg" xml:space="preserve" width="2480px" height="2480px" version="1.1" style="shape-rendering:geometricPrecision; text-rendering:geometricPrecision; image-rendering:optimizeQuality; fill-rule:evenodd; clip-rule:evenodd"
viewBox="0 0 2480 2480"
 xmlns:xlink="http://www.w3.org/1999/xlink">
 <defs>
  <style type="text/css">
   <![CDATA[
    .fil0 {fill:black}
   ]]>
  </style>
 </defs>
 <g id="Layer_x0020_1">
  <metadata id="CorelCorpID_0Corel-Layer"/>
  <path class="fil0" d="M2446 2144l-483 -483c-22,-21 -51,-33 -82,-33l-79 0c134,-171 213,-387 213,-620 0,-557 -451,-1008 -1007,-1008 -557,0 -1008,451 -1008,1008 0,556 451,1007 1008,1007 233,0 449,-79 620,-213l0 79c0,31 12,60 33,82l483 483c46,46 119,46 165,0l137 -137c45,-46 45,-119 0,-165zm-1438 -516c-343,0 -621,-278 -621,-620 0,-343 278,-621 621,-621 342,0 620,278 620,621 0,342 -278,620 -620,620z"/>
 </g>
</svg>
